HIERARCHY
ROOT Hips
{
	OFFSET 0.000000 0.000000 0.000000 
	CHANNELS 6 Xposition Yposition Zposition Zrotation Yrotation Xrotation
	JOINT LeftUpLeg
	{
		OFFSET 1.363060 -1.794630 0.839290 
		CHANNELS 3 Zrotation Yrotation Xrotation
		JOINT LeftLeg
		{
			OFFSET 2.448110 -6.726130 0.000000 
			CHANNELS 3 Zrotation Yrotation Xrotation
			JOINT LeftFoot
			{
				OFFSET 2.562200 -7.039590 0.000000 
				CHANNELS 3 Zrotation Yrotation Xrotation
				JOINT LeftToeBase
				{
					OFFSET 0.157640 -0.433110 2.322550 
					CHANNELS 3 Zrotation Yrotation Xrotation
					End Site
					{
						OFFSET 0.000000 0.000000 0.000000 
					}
				}
			}
		}
	}
	JOINT RightUpLeg
	{
		OFFSET -1.305520 -1.794630 0.839290 
		CHANNELS 3 Zrotation Yrotation Xrotation
		JOINT RightLeg
		{
			OFFSET -2.542530 -6.985550 0.000000 
			CHANNELS 3 Zrotation Yrotation Xrotation
			JOINT RightFoot
			{
				OFFSET -2.568260 -7.056230 0.000000 
				CHANNELS 3 Zrotation Yrotation Xrotation
				JOINT RightToeBase
				{
					OFFSET -0.164730 -0.452590 2.363150 
					CHANNELS 3 Zrotation Yrotation Xrotation
					End Site
					{
						OFFSET 0.000000 0.000000 0.000000 
					}
				}
			}
		}
	}
	JOINT Spine
	{
		OFFSET 0.028270 2.035590 -0.193380 
		CHANNELS 3 Zrotation Yrotation Xrotation
		JOINT Spine1
		{
			OFFSET 0.056720 2.048850 -0.042750 
			CHANNELS 3 Zrotation Yrotation Xrotation
			JOINT Neck1
			{
				OFFSET -0.054170 1.746240 0.172020 
				CHANNELS 3 Zrotation Yrotation Xrotation
				JOINT Head
				{
					OFFSET 0.104070 1.761360 -0.123970 
					CHANNELS 3 Zrotation Yrotation Xrotation
					End Site
					{
						OFFSET 0.000000 0.000000 0.000000 
					}
				}
			}
			JOINT LeftArm
			{
				OFFSET 3.362410 1.200890 -0.311210 
				CHANNELS 3 Zrotation Yrotation Xrotation
				JOINT LeftForeArm
				{
					OFFSET 4.983000 -0.000000 -0.000000 
					CHANNELS 3 Zrotation Yrotation Xrotation
					JOINT LeftHand
					{
						OFFSET 3.483560 -0.000000 -0.000000 
						CHANNELS 3 Zrotation Yrotation Xrotation
						JOINT LeftHandIndex1
						{
							OFFSET 0.715260 -0.000000 -0.000000 
							CHANNELS 3 Zrotation Yrotation Xrotation
							End Site
							{
								OFFSET 0.000000 0.000000 0.000000 
							}
						}
					}
				}
			}
			JOINT RightArm
			{
				OFFSET -3.136600 1.374050 -0.404650 
				CHANNELS 3 Zrotation Yrotation Xrotation
				JOINT RightForeArm
				{
					OFFSET -5.241900 -0.000000 -0.000000 
					CHANNELS 3 Zrotation Yrotation Xrotation
					JOINT RightHand
					{
						OFFSET -3.444170 -0.000000 -0.000000 
						CHANNELS 3 Zrotation Yrotation Xrotation
						JOINT RightHandIndex1
						{
							OFFSET -0.622530 -0.000000 -0.000000 
							CHANNELS 3 Zrotation Yrotation Xrotation
							End Site
							{
								OFFSET 0.000000 0.000000 0.000000 
							}
						}
					}
				}
			}
		}
	}
}
MOTION
Frames: 10
Frame Time: 0.041667
-4.752046 17.627537 -3.026068 0.595050 86.221038 8.817488 2.119214 -6.701085 -25.005319 4.841626 14.169730 41.627328 -4.402316 13.467034 2.667892 0.727400 -5.449400 -15.194800 1.170330 1.222177 -28.591853 -5.239848 -14.406658 41.640016 6.619398 -19.185219 2.014763 -0.627000 5.066700 -14.098900 -0.115139 5.309365 -4.006542 0.610223 3.419141 -4.998401 5.484326 28.925727 5.775033 -2.096000 14.640000 -0.218100 -4.795546 -46.469212 8.425311 32.429886 -39.705548 -17.239517 -0.188135 -4.883611 5.845267 -7.125000 0.000000 0.000000 -5.037213 36.987892 8.471429 -32.783045 40.491404 -20.807081 -1.221329 3.262151 -12.643393 7.125000 0.000000 0.000000 
-4.753876 17.627308 -3.027326 0.958935 86.202846 9.368991 2.080867 -6.660603 -25.036197 4.832441 14.179363 41.607410 -4.421583 13.509550 2.685989 0.744400 -5.511400 -15.373000 1.148188 1.207535 -28.642676 -5.241823 -14.429771 41.664972 6.611908 -19.173944 1.993915 -0.646200 5.142600 -14.315600 -0.054248 5.018614 -3.556329 1.181093 3.229747 -2.072008 4.705729 29.301793 5.129434 -2.386700 14.736100 -0.366000 -2.182020 -46.752748 4.288216 31.862052 -39.664768 -17.123196 -0.156497 -4.942668 6.079927 -7.125000 0.000000 0.000000 -7.000160 38.292731 5.439571 -32.412308 40.766009 -20.657433 -1.187639 3.232525 -12.397570 7.125000 0.000000 0.000000 
-4.756851 17.626508 -3.028700 1.432620 86.176263 9.839279 2.050543 -6.655339 -25.051458 4.833466 14.179738 41.612123 -4.423797 13.515339 2.703958 0.744200 -5.510700 -15.371000 1.111561 1.216350 -28.663337 -5.242614 -14.426570 41.667192 6.584668 -19.107651 2.009905 -0.638800 5.113300 -14.232000 -0.067248 5.034229 -3.575098 1.159002 3.240182 -2.208853 4.666870 29.266871 5.129310 -2.420700 14.721100 -0.371500 -2.210788 -46.708207 4.459046 31.886442 -39.669906 -17.125964 -0.159006 -4.932943 5.961641 -7.125000 0.000000 0.000000 -6.722571 38.335231 5.622716 -32.559607 40.825454 -20.768013 -1.197490 3.235394 -12.124117 7.125000 0.000000 0.000000 
-4.758453 17.627652 -3.029615 1.304836 86.182564 9.715241 2.061695 -6.668901 -25.055640 4.837435 14.183132 41.625106 -4.410142 13.489599 2.717945 0.730500 -5.460800 -15.227800 1.113409 1.230744 -28.664118 -5.240170 -14.427562 41.670151 6.577969 -19.087064 1.978958 -0.634500 5.096500 -14.184100 -0.059964 5.016883 -3.555583 1.238915 3.234504 -2.108593 4.543835 29.276679 5.056626 -2.488100 14.719200 -0.394200 -2.047669 -46.662331 4.318796 31.855054 -39.659196 -17.109832 -0.165298 -4.928911 5.970209 -7.125000 0.000000 0.000000 -6.665621 38.482931 5.457405 -32.536884 40.827875 -20.749999 -1.203649 3.237350 -12.039434 7.125000 0.000000 0.000000 
-4.759483 17.627652 -3.030416 0.160941 86.175329 8.362607 2.133499 -6.666212 -25.020451 4.853144 14.174307 41.653093 -4.396335 13.459444 2.717347 0.722800 -5.432500 -15.146300 1.183071 1.276575 -28.615703 -5.244072 -14.415590 41.680135 6.593701 -19.118094 1.961531 -0.652500 5.167100 -14.385700 -0.116245 5.314699 -4.002742 0.656361 3.424554 -5.037308 5.382342 28.884800 5.792409 -2.142900 14.624400 -0.202100 -4.695025 -46.425696 8.377418 32.460758 -39.723696 -17.258292 -0.183600 -4.850462 5.972491 -7.125000 0.000000 0.000000 -4.600529 37.229510 8.563647 -32.889259 40.529533 -20.856108 -1.227182 3.256808 -12.203292 7.125000 0.000000 0.000000 
-4.763145 17.624791 -3.030874 -0.509535 86.192152 7.710735 2.173469 -6.670522 -25.026809 4.860423 14.183456 41.686369 -4.355117 13.375027 2.678764 0.712500 -5.394600 -15.037500 1.228486 1.277300 -28.618648 -5.243018 -14.421245 41.686442 6.592140 -19.119994 1.974753 -0.663900 5.211000 -14.511400 -0.088791 5.254912 -3.925826 0.823463 3.394036 -4.560430 5.270815 28.934553 5.689616 -2.184600 14.634300 -0.231700 -4.315143 -46.482274 7.735273 32.365229 -39.713341 -17.231226 -0.191076 -4.851835 6.042914 -7.125000 0.000000 0.000000 -4.950895 37.455921 8.096770 -32.824743 40.576329 -20.817450 -1.207692 3.252203 -12.281759 7.125000 0.000000 0.000000 
-4.766120 17.624333 -3.031217 0.267651 86.250940 8.447577 2.137220 -6.743493 -25.022631 4.863446 14.190590 41.715828 -4.383738 13.421653 2.570604 0.714900 -5.403600 -15.063300 1.186214 1.227243 -28.623373 -5.250347 -14.417357 41.691443 6.583575 -19.101633 2.015461 -0.644800 5.136900 -14.299300 -0.114333 5.314669 -4.004717 0.638858 3.425947 -5.089932 5.403063 28.864808 5.702406 -2.153700 14.602800 -0.261800 -4.751899 -46.485749 8.541602 32.545093 -39.772683 -17.295377 -0.206976 -4.841160 5.933399 -7.125000 0.000000 0.000000 -4.654600 37.120222 8.750982 -32.847081 40.491322 -20.799297 -1.201675 3.255167 -12.488912 7.125000 0.000000 0.000000 
-4.767493 17.623761 -3.033277 0.315180 86.275454 8.521714 2.132955 -6.758969 -25.029216 4.867701 14.199944 41.729971 -4.444093 13.537030 2.508896 0.731900 -5.466100 -15.242800 1.181884 1.193430 -28.629608 -5.253379 -14.422758 41.701370 6.576459 -19.089315 2.035250 -0.625600 5.061400 -14.083700 -0.085517 5.238247 -3.916951 0.825771 3.387899 -4.536442 5.251546 28.955272 5.518735 -2.216000 14.622600 -0.339400 -4.275463 -46.517030 7.736278 32.452163 -39.772152 -17.293671 -0.204768 -4.861687 6.021818 -7.125000 0.000000 0.000000 -5.204700 37.329672 8.300768 -32.738472 40.535405 -20.719660 -1.170168 3.253401 -12.750165 7.125000 0.000000 0.000000 
-4.768637 17.621702 -3.035222 0.247795 86.237862 8.453277 2.124420 -6.710290 -25.040163 4.870616 14.199155 41.733648 -4.403166 13.464210 2.604958 0.726100 -5.444500 -15.180900 1.170396 1.233800 -28.616973 -5.254234 -14.425420 41.706828 6.591400 -19.120998 1.995902 -0.641500 5.124100 -14.262900 -0.083509 5.217344 -3.910845 0.862314 3.378849 -4.504249 5.197810 28.965119 5.483777 -2.235700 14.623400 -0.364400 -4.210674 -46.451130 7.611815 32.466828 -39.781300 -17.327912 -0.186820 -4.868238 6.022949 -7.125000 0.000000 0.000000 -5.133361 37.453296 8.306751 -32.802341 40.571902 -20.740295 -1.142785 3.240795 -12.553777 7.125000 0.000000 0.000000 
-4.770239 17.619642 -3.034993 0.413801 86.253886 8.740074 2.109151 -6.713391 -25.036042 4.867976 14.211916 41.745265 -4.335980 13.339150 2.672754 0.707300 -5.375100 -14.981600 1.158496 1.243069 -28.607911 -5.256234 -14.446202 41.712866 6.645147 -19.256365 1.957631 -0.659700 5.195000 -14.465600 -0.049347 4.961673 -3.545554 1.242304 3.209132 -2.152890 4.495425 29.280445 4.884993 -2.523100 14.699000 -0.526300 -1.946428 -46.566255 4.331360 32.013490 -39.744387 -17.229881 -0.164870 -4.916943 6.087628 -7.125000 0.000000 0.000000 -6.604428 38.576320 5.823026 -32.495203 40.777039 -20.594525 -1.093884 3.205651 -12.348255 7.125000 0.000000 0.000000 
